%TF.GenerationSoftware,KiCad,Pcbnew,10.0.3*%
%TF.CreationDate,2026-06-15T17:42:56+02:00*%
%TF.ProjectId,esphome presence detector,65737068-6f6d-4652-9070-726573656e63,rev?*%
%TF.SameCoordinates,Original*%
%TF.FileFunction,AssemblyDrawing,Top*%
%FSLAX46Y46*%
G04 Gerber Fmt 4.6, Leading zero omitted, Abs format (unit mm)*
G04 Created by KiCad (PCBNEW 10.0.3) date 2026-06-15 17:42:56*
%MOMM*%
%LPD*%
G01*
G04 APERTURE LIST*
%ADD10C,0.150000*%
%ADD11C,0.080000*%
%ADD12C,0.127000*%
%ADD13C,0.100000*%
G04 APERTURE END LIST*
D10*
X98966666Y-94554819D02*
X98966666Y-95269104D01*
X98966666Y-95269104D02*
X98919047Y-95411961D01*
X98919047Y-95411961D02*
X98823809Y-95507200D01*
X98823809Y-95507200D02*
X98680952Y-95554819D01*
X98680952Y-95554819D02*
X98585714Y-95554819D01*
X99395238Y-94650057D02*
X99442857Y-94602438D01*
X99442857Y-94602438D02*
X99538095Y-94554819D01*
X99538095Y-94554819D02*
X99776190Y-94554819D01*
X99776190Y-94554819D02*
X99871428Y-94602438D01*
X99871428Y-94602438D02*
X99919047Y-94650057D01*
X99919047Y-94650057D02*
X99966666Y-94745295D01*
X99966666Y-94745295D02*
X99966666Y-94840533D01*
X99966666Y-94840533D02*
X99919047Y-94983390D01*
X99919047Y-94983390D02*
X99347619Y-95554819D01*
X99347619Y-95554819D02*
X99966666Y-95554819D01*
X110709524Y-95462295D02*
X110709524Y-94662295D01*
X110709524Y-94662295D02*
X110900000Y-94662295D01*
X110900000Y-94662295D02*
X111014286Y-94700390D01*
X111014286Y-94700390D02*
X111090476Y-94776580D01*
X111090476Y-94776580D02*
X111128571Y-94852771D01*
X111128571Y-94852771D02*
X111166667Y-95005152D01*
X111166667Y-95005152D02*
X111166667Y-95119438D01*
X111166667Y-95119438D02*
X111128571Y-95271819D01*
X111128571Y-95271819D02*
X111090476Y-95348009D01*
X111090476Y-95348009D02*
X111014286Y-95424200D01*
X111014286Y-95424200D02*
X110900000Y-95462295D01*
X110900000Y-95462295D02*
X110709524Y-95462295D01*
X111928571Y-95462295D02*
X111471428Y-95462295D01*
X111700000Y-95462295D02*
X111700000Y-94662295D01*
X111700000Y-94662295D02*
X111623809Y-94776580D01*
X111623809Y-94776580D02*
X111547619Y-94852771D01*
X111547619Y-94852771D02*
X111471428Y-94890866D01*
D11*
X109816666Y-102279530D02*
X109792857Y-102303340D01*
X109792857Y-102303340D02*
X109721428Y-102327149D01*
X109721428Y-102327149D02*
X109673809Y-102327149D01*
X109673809Y-102327149D02*
X109602381Y-102303340D01*
X109602381Y-102303340D02*
X109554762Y-102255720D01*
X109554762Y-102255720D02*
X109530952Y-102208101D01*
X109530952Y-102208101D02*
X109507143Y-102112863D01*
X109507143Y-102112863D02*
X109507143Y-102041435D01*
X109507143Y-102041435D02*
X109530952Y-101946197D01*
X109530952Y-101946197D02*
X109554762Y-101898578D01*
X109554762Y-101898578D02*
X109602381Y-101850959D01*
X109602381Y-101850959D02*
X109673809Y-101827149D01*
X109673809Y-101827149D02*
X109721428Y-101827149D01*
X109721428Y-101827149D02*
X109792857Y-101850959D01*
X109792857Y-101850959D02*
X109816666Y-101874768D01*
X110292857Y-102327149D02*
X110007143Y-102327149D01*
X110150000Y-102327149D02*
X110150000Y-101827149D01*
X110150000Y-101827149D02*
X110102381Y-101898578D01*
X110102381Y-101898578D02*
X110054762Y-101946197D01*
X110054762Y-101946197D02*
X110007143Y-101970006D01*
D10*
X98966666Y-105704819D02*
X98966666Y-106419104D01*
X98966666Y-106419104D02*
X98919047Y-106561961D01*
X98919047Y-106561961D02*
X98823809Y-106657200D01*
X98823809Y-106657200D02*
X98680952Y-106704819D01*
X98680952Y-106704819D02*
X98585714Y-106704819D01*
X99871428Y-106038152D02*
X99871428Y-106704819D01*
X99633333Y-105657200D02*
X99395238Y-106371485D01*
X99395238Y-106371485D02*
X100014285Y-106371485D01*
X98966666Y-124054819D02*
X98966666Y-124769104D01*
X98966666Y-124769104D02*
X98919047Y-124911961D01*
X98919047Y-124911961D02*
X98823809Y-125007200D01*
X98823809Y-125007200D02*
X98680952Y-125054819D01*
X98680952Y-125054819D02*
X98585714Y-125054819D01*
X99966666Y-125054819D02*
X99395238Y-125054819D01*
X99680952Y-125054819D02*
X99680952Y-124054819D01*
X99680952Y-124054819D02*
X99585714Y-124197676D01*
X99585714Y-124197676D02*
X99490476Y-124292914D01*
X99490476Y-124292914D02*
X99395238Y-124340533D01*
%TO.C,U1*%
D12*
X103800000Y-150950000D02*
X108300000Y-150950000D01*
X103800000Y-152250000D02*
X103800000Y-150950000D01*
X94800000Y-152250000D02*
X94800000Y-150950000D01*
X94800000Y-152250000D02*
X103800000Y-152250000D01*
X108300000Y-128250000D02*
X108300000Y-150950000D01*
X90300000Y-150950000D02*
X94800000Y-150950000D01*
X90300000Y-128250000D02*
X90300000Y-150950000D01*
X90300000Y-128250000D02*
X108300000Y-128250000D01*
%TO.C,J2*%
D13*
X103110000Y-93830000D02*
X103110000Y-96370000D01*
X96125000Y-93830000D02*
X103110000Y-93830000D01*
X95490000Y-94465000D02*
X96125000Y-93830000D01*
X103110000Y-96370000D02*
X95490000Y-96370000D01*
X95490000Y-96370000D02*
X95490000Y-94465000D01*
%TO.C,D1*%
X113800000Y-97600000D02*
X113800000Y-92600000D01*
X113800000Y-92600000D02*
X108800000Y-92600000D01*
X108800000Y-97600000D02*
X113800000Y-97600000D01*
X108800000Y-93600000D02*
X109800000Y-92600000D01*
X108800000Y-92600000D02*
X108800000Y-97600000D01*
X113300000Y-95100000D02*
G75*
G02*
X109300000Y-95100000I-2000000J0D01*
G01*
X109300000Y-95100000D02*
G75*
G02*
X113300000Y-95100000I2000000J0D01*
G01*
%TO.C,C1*%
X108900000Y-101475000D02*
X110900000Y-101475000D01*
X110900000Y-102725000D01*
X108900000Y-102725000D01*
X108900000Y-101475000D01*
%TO.C,J4*%
X91680000Y-107520000D02*
X91680000Y-105615000D01*
X106920000Y-107520000D02*
X91680000Y-107520000D01*
X91680000Y-105615000D02*
X92315000Y-104980000D01*
X92315000Y-104980000D02*
X106920000Y-104980000D01*
X106920000Y-104980000D02*
X106920000Y-107520000D01*
%TO.C,J1*%
X92950000Y-125870000D02*
X92950000Y-123965000D01*
X105650000Y-125870000D02*
X92950000Y-125870000D01*
X92950000Y-123965000D02*
X93585000Y-123330000D01*
X93585000Y-123330000D02*
X105650000Y-123330000D01*
X105650000Y-123330000D02*
X105650000Y-125870000D01*
%TD*%
M02*
