M48
; DRILL file KiCad 10.0.3 date 2026-06-15T17:42:55
; FORMAT={-:-/ absolute / metric / decimal}
; #@! TF.CreationDate,2026-06-15T17:42:55+02:00
; #@! TF.GenerationSoftware,Kicad,Pcbnew,10.0.3
; #@! TF.FileFunction,Plated,1,2,PTH
FMAT,2
METRIC
; #@! TA.AperFunction,Plated,PTH,ComponentDrill
T1C0.840
; #@! TA.AperFunction,Plated,PTH,ComponentDrill
T2C1.000
%
G90
G05
T1
X91.68Y-131.72
X91.68Y-134.26
X91.68Y-136.8
X91.68Y-139.34
X91.68Y-141.88
X91.68Y-144.42
X91.68Y-146.96
X91.68Y-149.5
X106.92Y-131.72
X106.92Y-134.26
X106.92Y-136.8
X106.92Y-139.34
X106.92Y-141.88
X106.92Y-144.42
X106.92Y-146.96
X106.92Y-149.5
T2
X92.95Y-106.25
X94.22Y-124.6
X95.49Y-106.25
X96.76Y-95.1
X96.76Y-124.6
X98.03Y-106.25
X99.3Y-95.1
X99.3Y-124.6
X100.57Y-106.25
X101.84Y-95.1
X101.84Y-124.6
X103.11Y-106.25
X104.38Y-124.6
X105.65Y-106.25
M30
