%TF.GenerationSoftware,KiCad,Pcbnew,10.0.3*%
%TF.CreationDate,2026-06-15T17:42:56+02:00*%
%TF.ProjectId,esphome presence detector,65737068-6f6d-4652-9070-726573656e63,rev?*%
%TF.SameCoordinates,Original*%
%TF.FileFunction,Copper,L1,Top*%
%TF.FilePolarity,Positive*%
%FSLAX46Y46*%
G04 Gerber Fmt 4.6, Leading zero omitted, Abs format (unit mm)*
G04 Created by KiCad (PCBNEW 10.0.3) date 2026-06-15 17:42:56*
%MOMM*%
%LPD*%
G01*
G04 APERTURE LIST*
G04 Aperture macros list*
%AMRoundRect*
0 Rectangle with rounded corners*
0 $1 Rounding radius*
0 $2 $3 $4 $5 $6 $7 $8 $9 X,Y pos of 4 corners*
0 Add a 4 corners polygon primitive as box body*
4,1,4,$2,$3,$4,$5,$6,$7,$8,$9,$2,$3,0*
0 Add four circle primitives for the rounded corners*
1,1,$1+$1,$2,$3*
1,1,$1+$1,$4,$5*
1,1,$1+$1,$6,$7*
1,1,$1+$1,$8,$9*
0 Add four rect primitives between the rounded corners*
20,1,$1+$1,$2,$3,$4,$5,0*
20,1,$1+$1,$4,$5,$6,$7,0*
20,1,$1+$1,$6,$7,$8,$9,0*
20,1,$1+$1,$8,$9,$2,$3,0*%
G04 Aperture macros list end*
%TA.AperFunction,ComponentPad*%
%ADD10C,1.348000*%
%TD*%
%TA.AperFunction,ComponentPad*%
%ADD11C,1.700000*%
%TD*%
%TA.AperFunction,ComponentPad*%
%ADD12R,1.700000X1.700000*%
%TD*%
%TA.AperFunction,SMDPad,CuDef*%
%ADD13RoundRect,0.090000X0.660000X0.360000X-0.660000X0.360000X-0.660000X-0.360000X0.660000X-0.360000X0*%
%TD*%
%TA.AperFunction,SMDPad,CuDef*%
%ADD14RoundRect,0.250000X-0.337500X-0.475000X0.337500X-0.475000X0.337500X0.475000X-0.337500X0.475000X0*%
%TD*%
%TA.AperFunction,Conductor*%
%ADD15C,0.200000*%
%TD*%
G04 APERTURE END LIST*
D10*
%TO.P,U1,5V,5V_5V*%
%TO.N,VCC*%
X91680000Y-149500000D03*
%TO.P,U1,G,GND_G*%
%TO.N,GND*%
X91680000Y-146960000D03*
%TO.P,U1,3.3,3V3_3.3*%
%TO.N,unconnected-(U1-3V3-Pad3.3)*%
X91680000Y-144420000D03*
%TO.P,U1,4,GPIO4_4*%
%TO.N,Net-(D1-DIN)*%
X91680000Y-141880000D03*
%TO.P,U1,3,GPIO3_3*%
%TO.N,OUT*%
X91680000Y-139340000D03*
%TO.P,U1,2,GPIO2_2*%
%TO.N,unconnected-(U1-GPIO2-Pad2)*%
X91680000Y-136800000D03*
%TO.P,U1,1,GPIO1_1*%
%TO.N,unconnected-(U1-GPIO1-Pad1)*%
X91680000Y-134260000D03*
%TO.P,U1,0,GPIO0_0*%
%TO.N,unconnected-(U1-GPIO0-Pad0)*%
X91680000Y-131720000D03*
%TO.P,U1,21,GPIO21_21*%
%TO.N,RX*%
X106920000Y-131720000D03*
%TO.P,U1,20,GPIO20_20*%
%TO.N,TX*%
X106920000Y-134260000D03*
%TO.P,U1,10,GPIO10_10*%
%TO.N,Int*%
X106920000Y-136800000D03*
%TO.P,U1,9,GPIO9_9*%
%TO.N,unconnected-(U1-GPIO9-Pad9)*%
X106920000Y-139340000D03*
%TO.P,U1,8,GPIO8_8*%
%TO.N,SDA*%
X106920000Y-141880000D03*
%TO.P,U1,7,GPIO7_7*%
%TO.N,unconnected-(U1-GPIO7-Pad7)*%
X106920000Y-144420000D03*
%TO.P,U1,6,GPIO6_6*%
%TO.N,unconnected-(U1-GPIO6-Pad6)*%
X106920000Y-146960000D03*
%TO.P,U1,5,GPIO5_5*%
%TO.N,unconnected-(U1-GPIO5-Pad5)*%
X106920000Y-149500000D03*
%TD*%
D11*
%TO.P,J2,3,Pin_3_3*%
%TO.N,GND*%
X101840000Y-95100000D03*
%TO.P,J2,2,Pin_2_2*%
%TO.N,OUT*%
X99300000Y-95100000D03*
D12*
%TO.P,J2,1,Pin_1_1*%
%TO.N,VCC*%
X96760000Y-95100000D03*
%TD*%
D13*
%TO.P,D1,1,VDD_1*%
%TO.N,VCC*%
X113750000Y-96750000D03*
%TO.P,D1,2,DOUT_2*%
%TO.N,unconnected-(D1-DOUT-Pad2)*%
X113750000Y-93450000D03*
%TO.P,D1,3,VSS_3*%
%TO.N,GND*%
X108850000Y-93450000D03*
%TO.P,D1,4,DIN_4*%
%TO.N,Net-(D1-DIN)*%
X108850000Y-96750000D03*
%TD*%
D14*
%TO.P,C1,1*%
%TO.N,GND*%
X108862500Y-102100000D03*
%TO.P,C1,2*%
%TO.N,VCC*%
X110937500Y-102100000D03*
%TD*%
D12*
%TO.P,J4,1,Pin_1_1*%
%TO.N,VCC*%
X92950000Y-106250000D03*
D11*
%TO.P,J4,2,Pin_2_2*%
%TO.N,GND*%
X95490000Y-106250000D03*
%TO.P,J4,3,Pin_3_3*%
%TO.N,3v*%
X98030000Y-106250000D03*
%TO.P,J4,4,Pin_4_4*%
%TO.N,Int*%
X100570000Y-106250000D03*
%TO.P,J4,5,Pin_5_5*%
%TO.N,SDA*%
X103110000Y-106250000D03*
%TO.P,J4,6,Pin_6_6*%
%TO.N,SCL*%
X105650000Y-106250000D03*
%TD*%
D12*
%TO.P,J1,1,Pin_1_1*%
%TO.N,TX*%
X94220000Y-124600000D03*
D11*
%TO.P,J1,2,Pin_2_2*%
%TO.N,RX*%
X96760000Y-124600000D03*
%TO.P,J1,3,Pin_3_3*%
%TO.N,OUT mmwave*%
X99300000Y-124600000D03*
%TO.P,J1,4,Pin_4_4*%
%TO.N,GND*%
X101840000Y-124600000D03*
%TO.P,J1,5,Pin_5_5*%
%TO.N,VCC*%
X104380000Y-124600000D03*
%TD*%
%TO.N,VCC*%
D15*
X113750000Y-96750000D02*
X104700000Y-87700000D01*
X104700000Y-87700000D02*
X92800000Y-87700000D01*
X80100000Y-137920000D02*
X91680000Y-149500000D01*
X92800000Y-87700000D02*
X80100000Y-100400000D01*
X80100000Y-100400000D02*
X80100000Y-137920000D01*
%TO.N,GND*%
X103700000Y-88300000D02*
X108850000Y-93450000D01*
X93700000Y-88300000D02*
X103700000Y-88300000D01*
X80700000Y-101300000D02*
X93700000Y-88300000D01*
X80700000Y-135980000D02*
X80700000Y-101300000D01*
X91680000Y-146960000D02*
X80700000Y-135980000D01*
%TO.N,Net-(D1-DIN)*%
X81500000Y-101900000D02*
X81500000Y-131700000D01*
X81500000Y-131700000D02*
X91680000Y-141880000D01*
X94100000Y-89300000D02*
X81500000Y-101900000D01*
X102800000Y-89300000D02*
X94100000Y-89300000D01*
X108850000Y-96750000D02*
X106550000Y-96750000D01*
X106550000Y-96750000D02*
X105500000Y-95700000D01*
X105500000Y-95700000D02*
X105500000Y-92000000D01*
X105500000Y-92000000D02*
X102800000Y-89300000D01*
%TO.N,OUT*%
X99300000Y-92400000D02*
X99300000Y-95100000D01*
X97600000Y-90700000D02*
X99300000Y-92400000D01*
X83700000Y-131360000D02*
X83700000Y-101300000D01*
X83700000Y-101300000D02*
X94300000Y-90700000D01*
X91680000Y-139340000D02*
X83700000Y-131360000D01*
X94300000Y-90700000D02*
X97600000Y-90700000D01*
%TO.N,Int*%
X100570000Y-106250000D02*
X100570000Y-109370000D01*
X100570000Y-109370000D02*
X109600000Y-118400000D01*
X109600000Y-134120000D02*
X109600000Y-118400000D01*
X106920000Y-136800000D02*
X109600000Y-134120000D01*
%TO.N,VCC*%
X99200000Y-134900000D02*
X91600000Y-127300000D01*
X99200000Y-147200000D02*
X99200000Y-134900000D01*
X96900000Y-149500000D02*
X99200000Y-147200000D01*
X91600000Y-127300000D02*
X91600000Y-114520000D01*
X91680000Y-149500000D02*
X96900000Y-149500000D01*
X91600000Y-114520000D02*
X92950000Y-113170000D01*
%TO.N,GND*%
X108400000Y-119160000D02*
X95490000Y-106250000D01*
X107400000Y-127500000D02*
X108400000Y-126500000D01*
X108400000Y-126500000D02*
X108400000Y-119160000D01*
X104300000Y-127500000D02*
X107400000Y-127500000D01*
X101840000Y-125040000D02*
X104300000Y-127500000D01*
X101840000Y-124600000D02*
X101840000Y-125040000D01*
%TO.N,VCC*%
X104380000Y-124600000D02*
X92950000Y-113170000D01*
X92950000Y-113170000D02*
X92950000Y-106250000D01*
%TO.N,GND*%
X106305000Y-97180000D02*
X101920000Y-97180000D01*
X108862500Y-99737500D02*
X106305000Y-97180000D01*
X108862500Y-102100000D02*
X108862500Y-99737500D01*
%TO.N,VCC*%
X96760000Y-98740000D02*
X96760000Y-95100000D01*
X92950000Y-106250000D02*
X92950000Y-102550000D01*
X92950000Y-102550000D02*
X96760000Y-98740000D01*
%TO.N,GND*%
X101920000Y-97180000D02*
X95490000Y-103610000D01*
X101920000Y-95180000D02*
X101920000Y-97180000D01*
X101840000Y-95100000D02*
X101920000Y-95180000D01*
X95490000Y-103610000D02*
X95490000Y-106250000D01*
%TO.N,VCC*%
X110937500Y-99562500D02*
X113750000Y-96750000D01*
X110937500Y-102100000D02*
X110937500Y-99562500D01*
%TO.N,GND*%
X111000000Y-95600000D02*
X108850000Y-93450000D01*
X111000000Y-97600000D02*
X111000000Y-95600000D01*
X108862500Y-99737500D02*
X111000000Y-97600000D01*
%TO.N,SCL*%
X108860000Y-139340000D02*
X106920000Y-139340000D01*
X108750000Y-106250000D02*
X111000000Y-108500000D01*
X111000000Y-108500000D02*
X111000000Y-137200000D01*
X111000000Y-137200000D02*
X108860000Y-139340000D01*
X105650000Y-106250000D02*
X108750000Y-106250000D01*
%TO.N,SDA*%
X103110000Y-105490000D02*
X103110000Y-106250000D01*
X104800000Y-103800000D02*
X103110000Y-105490000D01*
X109700000Y-103800000D02*
X104800000Y-103800000D01*
X112600000Y-106700000D02*
X109700000Y-103800000D01*
X108720000Y-141880000D02*
X112600000Y-138000000D01*
X112600000Y-138000000D02*
X112600000Y-106700000D01*
X106920000Y-141880000D02*
X108720000Y-141880000D01*
%TO.N,RX*%
X95300000Y-128100000D02*
X98920000Y-131720000D01*
X98920000Y-131720000D02*
X106920000Y-131720000D01*
X95300000Y-126060000D02*
X95300000Y-128100000D01*
X96760000Y-124600000D02*
X95300000Y-126060000D01*
%TO.N,TX*%
X100460000Y-134260000D02*
X106920000Y-134260000D01*
X94220000Y-128020000D02*
X100460000Y-134260000D01*
X94220000Y-124600000D02*
X94220000Y-128020000D01*
%TD*%
M02*
